<svg id="Layer_1" data-name="Layer 1" xmlns="http://www.w3.org/2000/svg" viewBox="0 0 187 117"><path d="M185.81,110.64a3.44,3.44,0,0,1-3,5.16c-7.1,0-13.71.07-20.3-.19-1.22,0-2.61-2.3-3.47-3.79Q141.23,81.16,123.5,50.44l0,0a3.43,3.43,0,0,0-5.91,0c-2.94,5-5.7,9.66-8.29,14.42-1.54,2.81-3.36,4.08-6.68,4-5.54-.18-11.09-.13-17.18-.1a3.44,3.44,0,0,1-3-5.16L117.52,2.89a3.44,3.44,0,0,1,6,0Z"/><path d="M62.09,4.23a4.34,4.34,0,0,1,7.51,0C72.81,9.74,75.76,14.83,78.54,20c.58,1.09,0,3.27-.77,4.55q-25.36,44.13-51,88.14c-.7,1.21-2,2.92-3,3-6.11.18-12.23.17-18.74.15a4.34,4.34,0,0,1-3.75-6.51Z"/><path d="M59.09,115.53a3.92,3.92,0,0,1-3.39-5.86c3-5.3,5.9-10.27,8.94-15.12a6.09,6.09,0,0,1,4.46-2.21q24.18-.24,48.38,0a5.52,5.52,0,0,1,4.08,2c3.08,5,6,10,9.07,15.36a3.91,3.91,0,0,1-3.38,5.86Z"/></svg>