<svg id="Layer_1" data-name="Layer 1" xmlns="http://www.w3.org/2000/svg" viewBox="0 0 102 21"><defs><style>.cls-1,.cls-2{fill:#48acf0;}.cls-2{font-size:8px;font-family:NeuropolXRg-Regular, Neuropol X;}.cls-3{fill:#000;}</style></defs><path d="M32.47,19.25a.57.57,0,0,1-.49.86c-1.19,0-2.3,0-3.41,0-.2,0-.44-.38-.58-.63-2-3.43-4-6.87-6-10.3h0a.58.58,0,0,0-1,0c-.49.84-.95,1.63-1.39,2.42a1.08,1.08,0,0,1-1.12.67c-.93,0-1.86,0-2.88,0a.58.58,0,0,1-.51-.86L21,1.17a.57.57,0,0,1,1,0Z"/><path class="cls-1" d="M11.71,1.39a.73.73,0,0,1,1.26,0c.54.93,1,1.78,1.5,2.65a1,1,0,0,1-.12.77Q10.09,12.21,5.8,19.6c-.12.2-.33.49-.51.49-1,0-2,0-3.14,0A.74.74,0,0,1,1.52,19C4.93,13.12,8.29,7.32,11.71,1.39Z"/><path d="M11.21,20.07a.66.66,0,0,1-.57-1c.51-.89,1-1.73,1.5-2.54a1,1,0,0,1,.75-.37c2.71,0,5.41,0,8.12,0a.89.89,0,0,1,.68.33c.52.83,1,1.68,1.53,2.58a.66.66,0,0,1-.57,1Z"/><text class="cls-2" transform="translate(37.12 8.48)">Mohammed<tspan class="cls-3"><tspan x="0" y="9">Alkabsh</tspan></tspan></text></svg>